<svg xmlns="http://www.w3.org/2000/svg" xmlns:xlink="http://www.w3.org/1999/xlink" width="125.311" height="50.491" viewBox="0 0 125.311 50.491">
  <defs>
    <clipPath id="clip-path">
      <path id="Path_1" data-name="Path 1" d="M98.661,314.115v8.937a.692.692,0,0,1-.677.686H95.051a.65.65,0,0,1-.472-.206.721.721,0,0,1-.207-.48v-2.883l-2.108.377v2.506a2.81,2.81,0,0,0,2.786,2.795h2.932a2.81,2.81,0,0,0,2.785-2.795V322.1h46.778a2.766,2.766,0,0,0,1.757-.6,2.6,2.6,0,0,0,1.714.6h.42a2.853,2.853,0,0,0,1.74-.6,2.85,2.85,0,0,0,1.733.6h.428a2.739,2.739,0,0,0,1.964-.823,2.776,2.776,0,0,0,.823-1.963v-2.926l-2.109.376v2.55a.684.684,0,0,1-.677.676h-.428a.705.705,0,0,1-.473-.205.65.65,0,0,1-.2-.471v-2.926l-2.109.376v2.55a.686.686,0,0,1-.687.676h-.42a.686.686,0,0,1-.686-.676v-2.926l-2.108.376v2.55a.652.652,0,0,1-.677.676H123.721a.686.686,0,0,1-.687-.676v-.508a.72.72,0,0,1,.207-.48.637.637,0,0,1,.48-.205h3.841v-2.109h-3.841a2.81,2.81,0,0,0-2.795,2.795v.508a2.722,2.722,0,0,0,.078.676H100.769v-6.253Zm25.833-1.224a1.085,1.085,0,0,0,1.535,1.535,1.107,1.107,0,0,0,0-1.535,1.109,1.109,0,0,0-1.535,0m24.736.008a1.088,1.088,0,1,0,.762-.317,1.07,1.07,0,0,0-.762.317m3.189,0a1.088,1.088,0,1,0,.763-.317,1.069,1.069,0,0,0-.763.317m2.943,0a1.088,1.088,0,1,0,.772-.317,1.063,1.063,0,0,0-.772.317M150.4,299.451v10.885h7.723v-1.847h-5.5v-9.038Zm-40.68-.1v4.335h-4.344v-4.335h-2.221v10.984h2.221v-4.8h4.344v4.8h2.2V299.353Zm-15.211.2a2.908,2.908,0,0,0-1.847,2.688c0,1.731,1.132,2.7,3.52,3.295q1.385.338,1.773.475c.74.266,1.023.624,1.023,1.131,0,.824-.733,1.523-2.164,1.523a2.229,2.229,0,0,1-2.4-2.106l-2.155.209c.3,2.455,1.764,3.77,4.527,3.77a6.146,6.146,0,0,0,2.4-.408,3.215,3.215,0,0,0,2.007-2.988,3.3,3.3,0,0,0-.441-1.756c-.6-.932-1.457-1.389-3.612-1.906a6.036,6.036,0,0,1-2.039-.732.843.843,0,0,1,.024-1.348,2.513,2.513,0,0,1,1.506-.4c1.257,0,1.823.466,2.022,1.6l2.214-.1c-.067-2.005-1.449-3.33-4.211-3.33a5.427,5.427,0,0,0-2.155.384m21.618,5.292c0-2.53,1.223-3.778,3.055-3.778s3.02,1.223,3.02,3.745c0,2.539-1.257,3.82-3.02,3.82s-3.055-1.3-3.055-3.787m-.757-4.252a5.7,5.7,0,0,0-1.532,4.328c0,3.5,2.081,5.609,5.343,5.609,3.228,0,5.317-2.13,5.317-5.667,0-3.561-2.113-5.693-5.342-5.693a4.856,4.856,0,0,0-3.787,1.424m13.38-.874a5.415,5.415,0,0,0-2.821,5.093,6.6,6.6,0,0,0,.65,2.922,5.105,5.105,0,0,0,4.917,2.8,7.349,7.349,0,0,0,4.693-1.7v-4.386h-4.768v1.864h2.539v1.382a4.468,4.468,0,0,1-2.6.94c-1.889,0-3.146-1.289-3.146-3.911,0-2.4,1.215-3.653,3.17-3.653a2.4,2.4,0,0,1,2.472,1.749l2.2-.416c-.433-2.007-1.965-3.23-4.669-3.23a5.723,5.723,0,0,0-2.638.549m11.408,5.126c0-2.53,1.223-3.778,3.055-3.778s3.02,1.223,3.02,3.745c0,2.539-1.257,3.82-3.02,3.82s-3.055-1.3-3.055-3.787m-.757-4.252a5.7,5.7,0,0,0-1.532,4.328c0,3.5,2.08,5.609,5.343,5.609,3.228,0,5.317-2.13,5.317-5.667,0-3.561-2.113-5.693-5.343-5.693a4.855,4.855,0,0,0-3.786,1.424" transform="translate(-92.265 -299.168)" fill="#2eaebb"/>
    </clipPath>
    <clipPath id="clip-path-2">
      <path id="Path_3" data-name="Path 3" d="M189.1,282.963a4.605,4.605,0,0,0-4.605,4.606v14.666a4.606,4.606,0,1,0,9.212,0V287.569A4.606,4.606,0,0,0,189.1,282.963Zm-5.633,32.774A5.633,5.633,0,1,0,189.1,310.1a5.633,5.633,0,0,0-5.633,5.634Zm14.531,6.708-.05.033c-.075.047-.152.1-.228.139-.024.016-.05.033-.077.046-.084.052-.169.1-.254.151s-.164.093-.244.138-.134.075-.2.111-.131.071-.2.106-.142.073-.212.108c-.042.022-.083.042-.125.062-.256.128-.515.246-.777.359-.045.02-.093.042-.14.06h0c-.077.032-.155.065-.233.1s-.188.074-.282.111l-.169.063-.029.01c-.093.035-.187.068-.28.1l-.164.057c-.1.033-.2.066-.306.1s-.215.065-.324.1l-.128.036-.178.049-.177.048c-.126.031-.252.062-.378.09-.064.017-.128.03-.191.044l-.132.027c-.091.019-.181.038-.273.055a.234.234,0,0,1-.026.006l-.257.046c-.1.019-.195.035-.295.049l-.177.027c-.185.027-.371.05-.559.07l-.078.009q-.432.046-.871.069l-.278.012c-.1,0-.192.007-.287.008s-.213,0-.32,0-.221,0-.33,0c-.093,0-.183,0-.276-.007l-.267-.012c-.135-.007-.267-.016-.4-.026q-.08,0-.16-.013l-.153-.015q-.109-.009-.217-.022c-.059-.005-.118-.012-.177-.02-.04,0-.079-.008-.118-.015-.2-.024-.392-.053-.587-.085l-.245-.042-.109-.02c-.121-.022-.242-.047-.364-.072s-.225-.048-.337-.074l-.294-.07c-.126-.03-.25-.064-.374-.1-.085-.023-.169-.046-.253-.072-.065-.019-.13-.038-.193-.058s-.107-.034-.16-.05c-.122-.038-.242-.079-.362-.12l-.045-.015c-.12-.042-.239-.084-.357-.129-.178-.066-.354-.135-.529-.21h-.005c-.109-.045-.216-.09-.323-.137-.079-.035-.158-.069-.238-.107s-.129-.058-.192-.088l-.087-.042-.179-.087c-.088-.043-.176-.088-.264-.134s-.178-.093-.267-.141c-.061-.031-.122-.065-.18-.1-.083-.045-.164-.091-.244-.138s-.171-.1-.255-.151c-.026-.014-.051-.03-.077-.046-.077-.044-.151-.092-.226-.139l-.019-.012L175.3,329.3l.018.012a25.089,25.089,0,0,0,3.1,1.752c.134.064.27.127.406.188.093.042.187.084.279.123.074.034.149.065.223.1q.525.225,1.066.425c.055.022.109.042.165.061.135.05.272.1.409.146q.4.138.81.263c.145.045.29.088.436.128s.291.083.438.122.295.079.441.114q.417.1.837.191c.083.018.165.035.247.05l.276.056c.146.027.291.053.438.078.113.019.227.038.342.055l.053.009c.069.012.138.021.209.03.149.021.3.042.446.061.071.009.142.018.214.025l.172.021.187.019c.115.013.232.023.347.033.068.007.135.014.205.018s.136.012.2.016a.382.382,0,0,0,.06,0c.073.006.147.012.222.015.019,0,.039,0,.059,0,.052,0,.1.006.158.008.118.007.237.013.355.017.082,0,.165.006.246.007.046,0,.094,0,.142,0s.094,0,.142,0c.145,0,.289,0,.435,0s.29,0,.435,0q.072,0,.142,0c.048,0,.1,0,.142,0,.083,0,.165,0,.247-.007.118,0,.237-.009.355-.017.053,0,.1,0,.157-.008.02,0,.041,0,.06,0,.074,0,.149-.008.222-.015a.369.369,0,0,0,.059,0c.068,0,.137-.01.205-.016s.137-.01.205-.018c.115-.009.231-.02.346-.033l.187-.019.172-.021q.108-.011.214-.025c.149-.019.3-.04.447-.061.069-.009.138-.019.208-.03l.053-.009c.114-.017.229-.036.343-.055.146-.024.291-.05.438-.078l.276-.056c.082-.016.165-.033.246-.05q.421-.086.837-.191c.148-.036.295-.073.442-.114s.294-.08.438-.122.291-.083.436-.128q.407-.124.81-.263c.137-.047.273-.1.409-.146.055-.019.11-.039.165-.061q.539-.2,1.066-.425c.073-.033.149-.064.222-.1.092-.039.187-.081.279-.123.136-.061.272-.124.406-.188a25.1,25.1,0,0,0,3.105-1.752.58.58,0,0,0,.049-.034Zm10.057-30.3a4.207,4.207,0,1,0-6.377,5.49,16.572,16.572,0,0,1-2.728,24.157l4.921,6.825a24.984,24.984,0,0,0,4.184-36.472Zm-35.547,16.3a16.581,16.581,0,0,1,4.015-10.814,4.207,4.207,0,1,0-6.377-5.49,24.984,24.984,0,0,0,4.215,36.495l4.919-6.827A16.571,16.571,0,0,1,172.5,308.447Z" transform="translate(-164.088 -282.963)" fill="#02385a"/>
    </clipPath>
    <linearGradient id="linear-gradient" y1="0.5" x2="1" y2="0.5" gradientUnits="objectBoundingBox">
      <stop offset="0" stop-color="#25b5bb"/>
      <stop offset="1" stop-color="#6b78b8"/>
    </linearGradient>
  </defs>
  <g id="Group_5" data-name="Group 5" transform="translate(-92.265 -282.963)">
    <g id="Group_2" data-name="Group 2" transform="translate(92.265 299.951)">
      <g id="Group_1" data-name="Group 1" clip-path="url(#clip-path)">
        <rect id="Rectangle_1" data-name="Rectangle 1" width="65.862" height="26.678" transform="translate(0 0.001)" fill="#2eaebb"/>
      </g>
    </g>
    <g id="Group_4" data-name="Group 4" transform="translate(167.56 282.963)">
      <path id="Path_2" data-name="Path 2" d="M189.1,282.963a4.605,4.605,0,0,0-4.605,4.606v14.666a4.606,4.606,0,1,0,9.212,0V287.569A4.606,4.606,0,0,0,189.1,282.963Zm-5.633,32.774A5.633,5.633,0,1,0,189.1,310.1a5.633,5.633,0,0,0-5.633,5.634Zm14.531,6.708-.05.033c-.075.047-.152.1-.228.139-.024.016-.05.033-.077.046-.084.052-.169.1-.254.151s-.164.093-.244.138-.134.075-.2.111-.131.071-.2.106-.142.073-.212.108c-.042.022-.083.042-.125.062-.256.128-.515.246-.777.359-.045.02-.093.042-.14.06h0c-.077.032-.155.065-.233.1s-.188.074-.282.111l-.169.063-.029.01c-.093.035-.187.068-.28.1l-.164.057c-.1.033-.2.066-.306.1s-.215.065-.324.1l-.128.036-.178.049-.177.048c-.126.031-.252.062-.378.09-.064.017-.128.03-.191.044l-.132.027c-.091.019-.181.038-.273.055a.234.234,0,0,1-.026.006l-.257.046c-.1.019-.195.035-.295.049l-.177.027c-.185.027-.371.05-.559.07l-.078.009q-.432.046-.871.069l-.278.012c-.1,0-.192.007-.287.008s-.213,0-.32,0-.221,0-.33,0c-.093,0-.183,0-.276-.007l-.267-.012c-.135-.007-.267-.016-.4-.026q-.08,0-.16-.013l-.153-.015q-.109-.009-.217-.022c-.059-.005-.118-.012-.177-.02-.04,0-.079-.008-.118-.015-.2-.024-.392-.053-.587-.085l-.245-.042-.109-.02c-.121-.022-.242-.047-.364-.072s-.225-.048-.337-.074l-.294-.07c-.126-.03-.25-.064-.374-.1-.085-.023-.169-.046-.253-.072-.065-.019-.13-.038-.193-.058s-.107-.034-.16-.05c-.122-.038-.242-.079-.362-.12l-.045-.015c-.12-.042-.239-.084-.357-.129-.178-.066-.354-.135-.529-.21h-.005c-.109-.045-.216-.09-.323-.137-.079-.035-.158-.069-.238-.107s-.129-.058-.192-.088l-.087-.042-.179-.087c-.088-.043-.176-.088-.264-.134s-.178-.093-.267-.141c-.061-.031-.122-.065-.18-.1-.083-.045-.164-.091-.244-.138s-.171-.1-.255-.151c-.026-.014-.051-.03-.077-.046-.077-.044-.151-.092-.226-.139l-.019-.012L175.3,329.3l.018.012a25.089,25.089,0,0,0,3.1,1.752c.134.064.27.127.406.188.093.042.187.084.279.123.074.034.149.065.223.1q.525.225,1.066.425c.055.022.109.042.165.061.135.05.272.1.409.146q.4.138.81.263c.145.045.29.088.436.128s.291.083.438.122.295.079.441.114q.417.1.837.191c.083.018.165.035.247.05l.276.056c.146.027.291.053.438.078.113.019.227.038.342.055l.053.009c.069.012.138.021.209.03.149.021.3.042.446.061.071.009.142.018.214.025l.172.021.187.019c.115.013.232.023.347.033.068.007.135.014.205.018s.136.012.2.016a.382.382,0,0,0,.06,0c.073.006.147.012.222.015.019,0,.039,0,.059,0,.052,0,.1.006.158.008.118.007.237.013.355.017.082,0,.165.006.246.007.046,0,.094,0,.142,0s.094,0,.142,0c.145,0,.289,0,.435,0s.29,0,.435,0q.072,0,.142,0c.048,0,.1,0,.142,0,.083,0,.165,0,.247-.007.118,0,.237-.009.355-.017.053,0,.1,0,.157-.008.02,0,.041,0,.06,0,.074,0,.149-.008.222-.015a.369.369,0,0,0,.059,0c.068,0,.137-.01.205-.016s.137-.01.205-.018c.115-.009.231-.02.346-.033l.187-.019.172-.021q.108-.011.214-.025c.149-.019.3-.04.447-.061.069-.009.138-.019.208-.03l.053-.009c.114-.017.229-.036.343-.055.146-.024.291-.05.438-.078l.276-.056c.082-.016.165-.033.246-.05q.421-.086.837-.191c.148-.036.295-.073.442-.114s.294-.08.438-.122.291-.083.436-.128q.407-.124.81-.263c.137-.047.273-.1.409-.146.055-.019.11-.039.165-.061q.539-.2,1.066-.425c.073-.033.149-.064.222-.1.092-.039.187-.081.279-.123.136-.061.272-.124.406-.188a25.1,25.1,0,0,0,3.105-1.752.58.58,0,0,0,.049-.034Zm10.057-30.3a4.207,4.207,0,1,0-6.377,5.49,16.572,16.572,0,0,1-2.728,24.157l4.921,6.825a24.984,24.984,0,0,0,4.184-36.472Zm-35.547,16.3a16.581,16.581,0,0,1,4.015-10.814,4.207,4.207,0,1,0-6.377-5.49,24.984,24.984,0,0,0,4.215,36.495l4.919-6.827A16.571,16.571,0,0,1,172.5,308.447Z" transform="translate(-164.088 -282.963)" fill="#02385a"/>
      <g id="Group_3" data-name="Group 3" clip-path="url(#clip-path-2)">
        <rect id="Rectangle_2" data-name="Rectangle 2" width="50.626" height="56.823" transform="translate(-0.306 -4.746)" fill="url(#linear-gradient)"/>
      </g>
    </g>
  </g>
</svg>
